# xmcd CD database file
#
# Track frame offsets:
#	150
#	59382
#	94826
#	127174
#	170033
#	202165
#	235135
#	270105
#	308052
#	322435
#
# Disc length: 4506 seconds
#
# Revision: 0
# Processed by: cddbd v1.5PL3 Copyright (c) Steve Scherf et al.
# Submitted via: CDex 1.50beta10
#
DISCID=9611980a
DTITLE=Improvokation - Star Mountain Sessions
DYEAR=2004
DGENRE=Jazz
TTITLE0=Herdsman
TTITLE1=Celta Rózsa
TTITLE2=Return
TTITLE3=Bear Dance
TTITLE4=Meselia
TTITLE5=Whitsun Rose (Pünkösdi Rózsa)
TTITLE6=Magic Makers
TTITLE7=Two Rooms
TTITLE8=Cymbal Om
TTITLE9=Bear Dance (Radio Mix)
EXTD=YEAR: 2004
EXTT0=
EXTT1=
EXTT2=
EXTT3=
EXTT4=
EXTT5=
EXTT6=
EXTT7=
EXTT8=
EXTT9=
PLAYORDER=
